<svg width="100" height="40" viewBox="0 0 100 40" fill="none" xmlns="http://www.w3.org/2000/svg">
<g id="LogoTex/White" clip-path="url(#clip0_912_1914)">
<path id="Vector" d="M66.8793 15.3395C65.7218 14.8847 64.4067 14.4139 62.942 13.9592C59.5365 12.9158 56.0481 12.1736 52.516 11.7411C50.9831 11.5496 49.3767 11.4139 47.6967 11.3342C44.5262 11.1912 41.3496 11.2819 38.192 11.6054C36.562 11.765 34.8768 11.9964 33.1602 12.2996C29.886 12.8822 26.6531 13.6818 23.4822 14.6932C21.8286 15.2278 20.1355 15.8262 18.4188 16.5044C17.6314 16.7996 16.9069 17.1108 16.1352 17.4379C15.9338 17.5403 15.7782 17.7164 15.6999 17.9305C15.6217 18.1447 15.6265 18.3809 15.7134 18.5916C15.8004 18.8022 15.963 18.9716 16.1685 19.0655C16.3739 19.1594 16.6069 19.1708 16.8203 19.0975L18.4346 18.4352C18.4605 19.9022 18.9927 21.3137 19.9386 22.4246C21.2065 23.773 23.309 24.3953 26.4746 24.3953C32.2861 24.3953 35.2076 22.3129 36.8849 17.4219C37.3298 16.0668 37.6746 14.68 37.9164 13.273C41.0842 12.8637 44.2749 12.6638 47.4684 12.6746L46.925 16.0097L45.6651 23.5336C45.6526 23.6133 45.6572 23.6948 45.6788 23.7725C45.7003 23.8501 45.7382 23.9221 45.7898 23.9836C45.8415 24.045 45.9056 24.0943 45.9779 24.1282C46.0501 24.1621 46.1288 24.1798 46.2084 24.1799H50.004C50.1329 24.1797 50.2576 24.133 50.3557 24.0482C50.4538 23.9635 50.5189 23.8461 50.5395 23.7171L51.886 15.7384L52.3664 12.898C55.843 13.1685 59.2926 13.7208 62.6822 14.5496L61.8947 16.0975L58.107 23.3661C58.0677 23.4498 58.0497 23.5422 58.0544 23.6348C58.0592 23.7274 58.0867 23.8174 58.1343 23.8966C58.182 23.9757 58.2484 24.0416 58.3275 24.0883C58.4065 24.135 58.4959 24.161 58.5874 24.1639H62.3514C62.453 24.1619 62.5522 24.1319 62.6382 24.0771C62.7242 24.0222 62.7939 23.9447 62.8397 23.8528L66.2809 16.6719L66.7612 15.6746C69.0368 16.3823 71.2432 17.301 73.3523 18.4193C71.3079 17.1847 69.1571 16.1406 66.9266 15.2996L66.8793 15.3395ZM31.2151 18.7783C30.3647 19.9113 29.0968 20.5655 27.0573 20.5655C26.5786 20.5681 26.1009 20.52 25.632 20.4219C23.8445 20.023 23.2696 18.8262 23.2696 16.9831C23.2696 16.8873 23.2696 16.7916 23.2696 16.6879C26.3971 15.6464 29.5844 14.7991 32.8137 14.1506C32.6125 15.7958 32.0559 17.3758 31.1836 18.7783" fill="#22315E"/>
<path id="Vector_2" d="M16.5288 1.08984H0.992166C0.863235 1.09007 0.738582 1.13674 0.640487 1.22151C0.542391 1.30629 0.477245 1.42364 0.456691 1.55261L0.00783671 4.24144C-0.00458323 4.32046 -0.000101834 4.40126 0.0209789 4.47837C0.0420597 4.55548 0.0792475 4.6271 0.130023 4.68838C0.180799 4.74967 0.243978 4.79918 0.315282 4.83357C0.386586 4.86796 0.464352 4.88643 0.543312 4.88772H5.75632L2.60647 23.5499C2.59266 23.6292 2.59615 23.7105 2.6167 23.7882C2.63725 23.8659 2.67434 23.9381 2.72539 23.9997C2.77643 24.0613 2.84018 24.1108 2.91215 24.1448C2.98412 24.1787 3.06255 24.1963 3.14194 24.1962H6.91389C7.04283 24.196 7.16748 24.1493 7.26557 24.0646C7.36367 23.9798 7.42881 23.8624 7.44937 23.7335L10.5992 4.88772H16.0327C16.1621 4.88914 16.2876 4.84306 16.386 4.75799C16.4845 4.67292 16.5492 4.55461 16.5682 4.42495L17.0171 1.73612C17.0309 1.65691 17.0274 1.57559 17.0068 1.4979C16.9863 1.4202 16.9492 1.34801 16.8981 1.2864C16.8471 1.22479 16.7833 1.17527 16.7114 1.14131C16.6394 1.10735 16.561 1.08978 16.4816 1.08984" fill="#E11E25"/>
<path id="Vector_3" d="M29.8603 4.70394C32.8054 4.70394 33.6244 6.06032 33.6244 8.30235V8.36617C35.2938 8.15873 36.916 8.03107 38.5066 7.95926C38.5066 2.99649 36.2939 0.874154 30.4351 0.874154C23.1511 0.850218 20.395 4.11351 18.9775 12.0603C20.7625 11.3795 22.5185 10.7944 24.2457 10.305C24.978 6.89809 26.1198 4.7199 29.8603 4.7199" fill="#E11E25"/>
<path id="Vector_4" d="M53.6817 4.87974H59.1152C59.2441 4.87951 59.3688 4.83285 59.4669 4.74807C59.565 4.66329 59.6301 4.54594 59.6507 4.41697L60.0995 1.72814C60.112 1.64952 60.1076 1.56908 60.0865 1.49237C60.0653 1.41566 60.028 1.34451 59.9771 1.28382C59.9262 1.22314 59.8629 1.17437 59.7916 1.14088C59.7203 1.10739 59.6426 1.08998 59.564 1.08984H44.0195C43.8921 1.09129 43.7692 1.13738 43.6716 1.22029C43.574 1.3032 43.5077 1.41781 43.484 1.54463L43.0352 4.23346C43.0228 4.31248 43.0272 4.39328 43.0483 4.47039C43.0694 4.5475 43.1066 4.61912 43.1574 4.68041C43.2081 4.74169 43.2713 4.7912 43.3426 4.82559C43.4139 4.85998 43.4917 4.87845 43.5707 4.87974H48.7837L48.1931 8.39835C49.8467 8.61378 51.4295 8.90899 52.9178 9.25208L53.6817 4.87974Z" fill="#E11E25"/>
<path id="Vector_5" d="M72.5886 0.850586C70.7381 0.850586 69.2892 1.80803 68.108 4.04208L63.5801 12.7628C64.9345 13.3612 66.163 13.9756 67.2497 14.566L71.5886 5.5341L74.3526 23.7256C74.3714 23.856 74.4358 23.9752 74.5341 24.0616C74.6323 24.148 74.7579 24.1958 74.888 24.1963H78.9277C79.0079 24.1966 79.0872 24.1789 79.1598 24.1445C79.2324 24.1101 79.2966 24.0598 79.3478 23.9972C79.399 23.9347 79.4359 23.8614 79.4558 23.7827C79.4758 23.7041 79.4783 23.6219 79.4632 23.5421L75.9905 4.04208C75.5967 1.83995 74.4156 0.850586 72.628 0.850586" fill="#E11E25"/>
<path id="Vector_6" d="M93.8897 20.4384C91.6376 20.4384 90.921 20.0794 90.921 18.6911C90.9291 18.2224 90.9765 17.7553 91.0627 17.2948L93.6771 1.72831C93.6895 1.64929 93.6851 1.56849 93.664 1.49138C93.6429 1.41427 93.6057 1.34264 93.5549 1.28136C93.5042 1.22008 93.441 1.17057 93.3697 1.13618C93.2984 1.10179 93.2206 1.08332 93.1416 1.08203H89.3776C89.2481 1.08351 89.1232 1.13045 89.0241 1.21484C88.925 1.29924 88.8579 1.41586 88.8342 1.5448L85.9757 18.6033C85.8863 19.0822 85.8388 19.5681 85.834 20.0554C85.834 24.0448 89.4406 24.2443 93.3464 24.2443C94.7244 24.2443 97.3231 24.1725 99.0555 24.1006C99.1792 24.0953 99.2973 24.0472 99.3904 23.9645C99.4835 23.8818 99.5459 23.7694 99.5674 23.6459L99.9926 21.0767C100.005 20.9981 100.001 20.9176 99.9795 20.8409C99.9584 20.7642 99.9211 20.6931 99.8702 20.6324C99.8193 20.5717 99.756 20.5229 99.6847 20.4895C99.6133 20.456 99.5357 20.4385 99.4571 20.4384H93.8897Z" fill="#E11E25"/>
<path id="Vector_7" d="M58.776 29.5742C60.7132 29.5742 61.3038 30.3721 61.3038 31.7843C61.2951 32.1907 61.2583 32.596 61.1935 32.9971C61.1712 33.1833 61.1343 33.3673 61.0833 33.5476C60.0109 33.7172 58.9307 33.8317 57.8468 33.8907L56.7286 33.9545C56.7286 34.0423 56.7286 34.138 56.7286 34.2178C56.7286 35.0795 57.2405 35.3029 58.1224 35.3029C58.9391 35.2933 59.7544 35.232 60.5636 35.1194L60.5006 36.4279C59.5176 36.6015 58.5218 36.6896 57.524 36.6912C55.697 36.6912 55.1064 35.7258 55.1064 34.2976C55.1113 33.9125 55.1456 33.5284 55.2088 33.1487C55.5947 30.6115 56.5318 29.5742 58.776 29.5742ZM58.0358 32.7178C58.4847 32.7178 59.1619 32.638 59.6107 32.5822C59.6366 32.4908 59.6551 32.3974 59.6659 32.3029C59.6764 32.1595 59.6764 32.0155 59.6659 31.8721C59.6659 31.2418 59.3666 30.8987 58.5792 30.8987C57.3428 30.8987 57.0515 31.6966 56.8861 32.7817L58.0358 32.7178Z" fill="#22315E"/>
<path id="Vector_8" d="M67.1312 29.6621H68.9266L66.1468 32.9813L68.0289 36.5956H66.0681L64.942 34.3057L63.1151 36.5956H61.2803L64.2648 33.0212L62.5323 29.6621H64.4538L65.4696 31.7366L67.1312 29.6621Z" fill="#22315E"/>
<path id="Vector_9" d="M70.2573 39.1483H68.5879L69.777 31.5286C69.8441 31.0881 69.9335 30.6514 70.0447 30.2201C70.9122 29.7816 71.8708 29.56 72.8402 29.5739C74.6907 29.5739 75.5727 30.1483 75.5727 31.9036C75.567 32.3155 75.5301 32.7262 75.4625 33.1324C75.0372 35.8212 73.982 36.6909 71.911 36.6909C71.4898 36.6883 71.0701 36.6401 70.6589 36.5473L70.2573 39.1483ZM73.7852 33.1324C73.8449 32.8085 73.8791 32.4803 73.8875 32.151C73.8875 31.4489 73.6355 30.9302 72.6355 30.9302C72.2675 30.9201 71.9011 30.9824 71.5566 31.1137C71.4858 31.401 71.4228 31.7281 71.3676 32.0393L70.8794 35.159C71.1749 35.2548 71.4827 35.3059 71.7929 35.3106C73.3678 35.3106 73.5883 34.377 73.7852 33.1164" fill="#22315E"/>
<path id="Vector_10" d="M76.3525 36.5954L77.14 31.5289C77.2109 31.0582 77.2975 30.6592 77.3999 30.2124C78.2713 29.7778 79.2321 29.559 80.2033 29.5741C80.4288 29.5612 80.6549 29.5612 80.8805 29.5741L80.534 30.9624C80.374 30.9532 80.2136 30.9532 80.0536 30.9624C79.6599 30.9539 79.2686 31.0272 78.9039 31.1778C78.8331 31.4571 78.7701 31.7922 78.7149 32.1034L78.0141 36.5954H76.3525Z" fill="#22315E"/>
<path id="Vector_11" d="M84.4243 29.5742C86.3615 29.5742 86.9521 30.3721 86.9521 31.7843C86.9434 32.1907 86.9066 32.596 86.8419 32.9971C86.8419 33.1726 86.7789 33.3641 86.7395 33.5476C85.6696 33.7168 84.5921 33.8313 83.5109 33.8907L82.3927 33.9545C82.3927 34.0423 82.3927 34.1381 82.3927 34.2178C82.3927 35.0795 82.9045 35.3029 83.7865 35.3029C84.6024 35.3062 85.4176 35.2582 86.2276 35.1593L86.1646 36.4678C85.1816 36.6414 84.1858 36.7295 83.188 36.7311C81.3611 36.7311 80.7705 35.7657 80.7705 34.3375C80.7754 33.9524 80.8096 33.5683 80.8729 33.1886C81.2509 30.6673 82.1801 29.6301 84.4322 29.6301L84.4243 29.5742ZM83.692 32.7737C84.133 32.7737 84.8181 32.6939 85.2669 32.6381C85.2928 32.5467 85.3113 32.4533 85.322 32.3588C85.3323 32.2154 85.3323 32.0714 85.322 31.9279C85.322 31.2976 85.0149 30.9545 84.2196 30.9545C82.9912 30.9545 82.6919 31.7524 82.5266 32.8375L83.692 32.7737Z" fill="#22315E"/>
<path id="Vector_12" d="M90.1017 33.7551C89.204 33.4519 88.2984 33.1487 88.2984 31.9998C88.2876 31.8617 88.2876 31.7229 88.2984 31.5849C88.5425 29.9891 89.6765 29.5742 91.0151 29.5742C91.8325 29.5623 92.6479 29.6589 93.4405 29.8615L93.0862 31.1221C92.5356 30.9955 91.9734 30.9287 91.4089 30.9226C90.8734 30.9226 90.0702 30.9226 89.9757 31.521C89.8812 32.1194 90.5584 32.2311 91.0781 32.4226C92.0152 32.7737 92.8263 32.9971 92.8263 34.1301C92.8364 34.2868 92.8364 34.4441 92.8263 34.6008C92.5665 36.2444 91.338 36.6992 89.8497 36.6992C89.0528 36.6995 88.259 36.5976 87.4873 36.396L87.8495 35.1194C88.4416 35.2371 89.042 35.3064 89.645 35.3269C90.1568 35.3269 91.0073 35.3269 91.1175 34.6567C91.1209 34.6115 91.1209 34.5662 91.1175 34.521C91.1175 33.9785 90.582 33.9226 90.0859 33.7232" fill="#22315E"/>
<path id="Vector_13" d="M96.1496 33.755C95.2519 33.4518 94.3384 33.1486 94.3384 31.9997C94.3279 31.8616 94.3279 31.7229 94.3384 31.5848C94.5825 29.9891 95.7086 29.5742 97.0552 29.5742C97.8725 29.5627 98.6879 29.6592 99.4806 29.8614L99.1183 31.122C98.5678 30.9955 98.0055 30.9286 97.441 30.9226C96.9134 30.9226 96.1102 30.9226 96.0157 31.521C95.9212 32.1194 96.5985 32.2311 97.1182 32.4226C98.0474 32.7736 98.8664 32.997 98.8664 34.13C98.8764 34.2868 98.8764 34.444 98.8664 34.6008C98.6144 36.2444 97.3702 36.6992 95.8897 36.6992C95.0928 36.6994 94.299 36.5976 93.5273 36.396L93.8896 35.1194C94.4816 35.237 95.082 35.3064 95.685 35.3268C96.1968 35.3268 97.0473 35.3268 97.1576 34.6566C97.161 34.6115 97.161 34.5661 97.1576 34.521C97.1576 33.9784 96.6221 33.9226 96.126 33.7231" fill="#22315E"/>
<path id="Vector_14" d="M23.2932 16.9837C23.2932 16.8879 23.2932 16.7922 23.2932 16.6885C21.7183 17.2151 20.0804 17.8055 18.4346 18.4598C18.4605 19.9267 18.9927 21.3382 19.9386 22.4491C21.8705 21.6991 23.7657 21.0209 25.6241 20.4145C23.8366 20.0156 23.2617 18.8188 23.2617 16.9757" fill="#182140"/>
<path id="Vector_15" d="M32.8449 14.1514C32.6452 15.7969 32.0886 17.3773 31.2148 18.7791C33.1599 18.2605 35.0498 17.8296 36.8925 17.4546C37.3374 16.0994 37.6822 14.7126 37.9241 13.3057C36.2809 13.5237 34.5878 13.8057 32.8449 14.1514Z" fill="#182140"/>
<path id="Vector_16" d="M47.4838 12.707L46.9326 16.0102C48.6493 15.8586 50.2951 15.7709 51.8621 15.731L52.3661 12.8985C50.7912 12.7868 49.1743 12.723 47.5153 12.707" fill="#182140"/>
<path id="Vector_17" d="M62.6429 14.5576L61.8555 16.1055C63.4776 16.273 64.9344 16.4805 66.2337 16.7119L66.7141 15.7145C65.5093 15.3236 64.1549 14.9167 62.6587 14.5576" fill="#182140"/>
</g>
<defs>
<clipPath id="clip0_912_1914">
<rect width="100" height="38.2979" fill="white" transform="translate(0 0.850586)"/>
</clipPath>
</defs>
</svg>
